<svg width="105" height="48" viewBox="0 0 105 48" fill="none" xmlns="http://www.w3.org/2000/svg">
<path d="M41.7357 41H38.4344V28.6826H41.7357V41ZM38.2408 25.4951C38.2408 25.0018 38.404 24.5958 38.7304 24.277C39.0643 23.9583 39.5158 23.7989 40.085 23.7989C40.6467 23.7989 41.0944 23.9583 41.4283 24.277C41.7623 24.5958 41.9292 25.0018 41.9292 25.4951C41.9292 25.996 41.7585 26.4058 41.417 26.7246C41.083 27.0433 40.6391 27.2027 40.085 27.2027C39.531 27.2027 39.0833 27.0433 38.7417 26.7246C38.4078 26.4058 38.2408 25.996 38.2408 25.4951ZM48.3953 25.6545V28.6826H50.5013V31.096H48.3953V37.2433C48.3953 37.6987 48.4826 38.025 48.6571 38.2223C48.8317 38.4196 49.1656 38.5183 49.6589 38.5183C50.0232 38.5183 50.3458 38.4917 50.6266 38.4386V40.9317C49.9815 41.129 49.3174 41.2277 48.6344 41.2277C46.3272 41.2277 45.1509 40.0627 45.1054 37.7328V31.096H43.3067V28.6826H45.1054V25.6545H48.3953ZM51.4804 34.7275C51.4804 33.5056 51.7156 32.4165 52.1862 31.4603C52.6567 30.504 53.3321 29.7641 54.2125 29.2404C55.1004 28.7167 56.1288 28.4549 57.2975 28.4549C58.9596 28.4549 60.3143 28.9634 61.3616 29.9804C62.4165 30.9973 63.0047 32.3786 63.1261 34.1241L63.1489 34.9665C63.1489 36.8563 62.6214 38.3741 61.5665 39.5201C60.5116 40.6585 59.0962 41.2277 57.3203 41.2277C55.5444 41.2277 54.1252 40.6585 53.0627 39.5201C52.0078 38.3817 51.4804 36.8335 51.4804 34.8754V34.7275ZM54.7703 34.9665C54.7703 36.1353 54.9904 37.0308 55.4306 37.6531C55.8708 38.2679 56.5007 38.5752 57.3203 38.5752C58.1172 38.5752 58.7395 38.2717 59.1873 37.6645C59.635 37.0498 59.8589 36.0708 59.8589 34.7275C59.8589 33.5815 59.635 32.6935 59.1873 32.0636C58.7395 31.4337 58.1096 31.1188 57.2975 31.1188C56.4931 31.1188 55.8708 31.4337 55.4306 32.0636C54.9904 32.6859 54.7703 33.6536 54.7703 34.9665ZM72.0967 31.7676C71.6489 31.7069 71.2542 31.6766 70.9127 31.6766C69.6681 31.6766 68.8522 32.0978 68.4652 32.9402V41H65.1752V28.6826H68.283L68.3741 30.1511C69.0344 29.0203 69.9489 28.4549 71.1176 28.4549C71.4819 28.4549 71.8234 28.5042 72.1422 28.6029L72.0967 31.7676ZM77.1625 41H73.8612V28.6826H77.1625V41ZM73.6676 25.4951C73.6676 25.0018 73.8308 24.5958 74.1571 24.277C74.4911 23.9583 74.9426 23.7989 75.5118 23.7989C76.0734 23.7989 76.5212 23.9583 76.8551 24.277C77.1891 24.5958 77.356 25.0018 77.356 25.4951C77.356 25.996 77.1853 26.4058 76.8437 26.7246C76.5098 27.0433 76.0658 27.2027 75.5118 27.2027C74.9578 27.2027 74.51 27.0433 74.1685 26.7246C73.8346 26.4058 73.6676 25.996 73.6676 25.4951ZM82.9114 28.6826L83.0138 30.1056C83.8942 29.0051 85.0743 28.4549 86.5542 28.4549C87.8596 28.4549 88.831 28.8382 89.4685 29.6047C90.106 30.3712 90.4324 31.5172 90.4475 33.0426V41H87.1576V33.1223C87.1576 32.4241 87.0058 31.9194 86.7022 31.6083C86.3987 31.2895 85.894 31.1301 85.1882 31.1301C84.2623 31.1301 83.5679 31.5248 83.1049 32.3141V41H79.815V28.6826H82.9114ZM92.4397 34.7275C92.4397 33.5056 92.675 32.4165 93.1455 31.4603C93.6161 30.504 94.2915 29.7641 95.1719 29.2404C96.0598 28.7167 97.0882 28.4549 98.2569 28.4549C99.919 28.4549 101.274 28.9634 102.321 29.9804C103.376 30.9973 103.964 32.3786 104.085 34.1241L104.108 34.9665C104.108 36.8563 103.581 38.3741 102.526 39.5201C101.471 40.6585 100.056 41.2277 98.2797 41.2277C96.5038 41.2277 95.0846 40.6585 94.0221 39.5201C92.9672 38.3817 92.4397 36.8335 92.4397 34.8754V34.7275ZM95.7297 34.9665C95.7297 36.1353 95.9498 37.0308 96.39 37.6531C96.8301 38.2679 97.46 38.5752 98.2797 38.5752C99.0766 38.5752 99.6989 38.2717 100.147 37.6645C100.594 37.0498 100.818 36.0708 100.818 34.7275C100.818 33.5815 100.594 32.6935 100.147 32.0636C99.6989 31.4337 99.069 31.1188 98.2569 31.1188C97.4525 31.1188 96.8301 31.4337 96.39 32.0636C95.9498 32.6859 95.7297 33.6536 95.7297 34.9665Z" fill="#BEBEBE"/>
<path d="M20.1998 31.1061C19.2228 31.1061 18.2677 31.3958 17.4553 31.9386C16.6429 32.4815 16.0098 33.253 15.6359 34.1556C15.262 35.0583 15.1641 36.0516 15.3548 37.0099C15.5454 37.9681 16.0159 38.8483 16.7067 39.5392C17.3976 40.2301 18.2778 40.7006 19.2361 40.8912C20.1944 41.0818 21.1876 40.984 22.0903 40.6101C22.993 40.2362 23.7645 39.603 24.3073 38.7906C24.8501 37.9782 25.1398 37.0231 25.1398 36.0461C25.1398 34.7359 24.6194 33.4794 23.6929 32.553C22.7665 31.6266 21.51 31.1061 20.1998 31.1061Z" fill="#BEBEBE"/>
<path d="M35.3599 10.7262C34.3828 10.7262 33.4277 11.0159 32.6154 11.5588C31.803 12.1016 31.1698 12.8731 30.7959 13.7758C30.422 14.6784 30.3242 15.6717 30.5148 16.63C30.7054 17.5882 31.1759 18.4685 31.8668 19.1593C32.5576 19.8502 33.4379 20.3207 34.3961 20.5113C35.3544 20.7019 36.3477 20.6041 37.2503 20.2302C38.153 19.8563 38.9245 19.2231 39.4673 18.4107C40.0101 17.5984 40.2999 16.6433 40.2999 15.6662C40.2999 14.3561 39.7794 13.0995 38.853 12.1731C37.9265 11.2467 36.67 10.7262 35.3599 10.7262Z" fill="#BEBEBE"/>
<path d="M9.87992 15.0962C9.87992 14.1191 9.59022 13.164 9.04742 12.3516C8.50462 11.5393 7.73312 10.9061 6.83042 10.5322C5.92772 10.1583 4.93452 10.0605 3.97622 10.2511C3.01792 10.4417 2.13772 10.9122 1.44682 11.6031C0.756024 12.2939 0.285522 13.1741 0.0949221 14.1324C-0.0956779 15.0907 0.00212336 16.084 0.376023 16.9866C0.749923 17.8893 1.38312 18.6608 2.19542 19.2036C3.00782 19.7464 3.96292 20.0362 4.93992 20.0362C6.25012 20.0362 7.50662 19.5157 8.43312 18.5893C9.35952 17.6628 9.87992 16.4063 9.87992 15.0962Z" fill="#BEBEBE"/>
<path d="M31.4399 22.3962C29.6727 20.6182 28.6808 18.2131 28.6808 15.7062C28.6808 13.1993 29.6727 10.7942 31.4399 9.01619C32.1289 8.32449 32.5974 7.4443 32.7865 6.4866C32.9755 5.5288 32.8765 4.53659 32.502 3.63499C32.1276 2.73349 31.4944 1.9631 30.6824 1.4212C29.8705 0.879196 28.9162 0.589996 27.9399 0.589996C26.9637 0.589996 26.0094 0.879196 25.1975 1.4212C24.3855 1.9631 23.7523 2.73349 23.3779 3.63499C23.0034 4.53659 22.9044 5.5288 23.0934 6.4866C23.2825 7.4443 23.751 8.32449 24.4399 9.01619C25.3276 9.89569 26.0323 10.9425 26.5132 12.0959C26.994 13.2493 27.2416 14.4866 27.2416 15.7362C27.2416 16.9858 26.994 18.2231 26.5132 19.3765C26.0323 20.5299 25.3276 21.5766 24.4399 22.4562C23.751 23.1478 23.2825 24.0281 23.0934 24.9858C22.9044 25.9436 23.0034 26.9358 23.3779 27.8374C23.7523 28.7389 24.3855 29.5093 25.1975 30.0512C26.0094 30.5932 26.9637 30.8824 27.9399 30.8824C28.9162 30.8824 29.8705 30.5932 30.6824 30.0512C31.4944 29.5093 32.1276 28.7389 32.502 27.8374C32.8765 26.9358 32.9755 25.9436 32.7865 24.9858C32.5974 24.0281 32.1289 23.1478 31.4399 22.4562V22.3962Z" fill="#BEBEBE"/>
<path d="M17.2199 25.2762C17.2146 23.9792 16.7054 22.7349 15.7999 21.8062C14.0327 20.0282 13.0408 17.6231 13.0408 15.1162C13.0408 12.6093 14.0327 10.2043 15.7999 8.4262C16.4889 7.7346 16.9574 6.8543 17.1464 5.8966C17.3355 4.9389 17.2365 3.9466 16.862 3.0451C16.4876 2.1435 15.8544 1.3732 15.0424 0.8312C14.2305 0.2893 13.2761 0 12.2999 0C11.3237 0 10.3694 0.2893 9.55743 0.8312C8.74553 1.3732 8.11233 2.1435 7.73783 3.0451C7.36343 3.9466 7.26443 4.9389 7.45343 5.8966C7.64253 6.8543 8.11103 7.7346 8.79993 8.4262C9.68613 9.3056 10.3895 10.3517 10.8695 11.5042C11.3495 12.6567 11.5966 13.8928 11.5966 15.1412C11.5966 16.3897 11.3495 17.6258 10.8695 18.7783C10.3895 19.9308 9.68613 20.9769 8.79993 21.8562C8.23123 22.4338 7.81333 23.1425 7.58323 23.9198C7.35313 24.697 7.31773 25.5189 7.48033 26.3131C7.64293 27.1072 7.99843 27.8491 8.51553 28.4734C9.03263 29.0977 9.69533 29.5851 10.4453 29.8927C11.1953 30.2003 12.0094 30.3187 12.8159 30.2373C13.6224 30.1559 14.3965 29.8773 15.0699 29.426C15.7433 28.9748 16.2953 28.3648 16.6772 27.6498C17.0592 26.9348 17.2593 26.1368 17.2599 25.3262L17.2199 25.2762Z" fill="#BEBEBE"/>
</svg>
