<svg width="1062" height="246" viewBox="0 0 1062 246" fill="none" xmlns="http://www.w3.org/2000/svg">
<path d="M731.521 217.237H714.315V153.041H731.521V217.237ZM713.306 136.428C713.306 133.857 714.157 131.741 715.857 130.079C717.598 128.418 719.951 127.587 722.918 127.587C725.845 127.587 728.179 128.418 729.919 130.079C731.659 131.741 732.53 133.857 732.53 136.428C732.53 139.038 731.64 141.174 729.86 142.836C728.119 144.497 725.805 145.328 722.918 145.328C720.03 145.328 717.697 144.497 715.917 142.836C714.176 141.174 713.306 139.038 713.306 136.428ZM766.23 137.258V153.041H777.206V165.619H766.23V197.658C766.23 200.031 766.685 201.732 767.594 202.76C768.504 203.789 770.245 204.303 772.816 204.303C774.714 204.303 776.395 204.165 777.859 203.888V216.881C774.497 217.91 771.036 218.424 767.476 218.424C755.451 218.424 749.32 212.352 749.083 200.209V165.619H739.709V153.041H749.083V137.258H766.23ZM782.309 184.546C782.309 178.177 783.535 172.501 785.987 167.518C788.44 162.534 791.96 158.677 796.548 155.948C801.176 153.219 806.536 151.854 812.627 151.854C821.289 151.854 828.35 154.504 833.808 159.804C839.306 165.105 842.372 172.304 843.005 181.401L843.123 185.792C843.123 195.641 840.374 203.552 834.876 209.524C829.378 215.457 822.001 218.424 812.746 218.424C803.49 218.424 796.093 215.457 790.556 209.524C785.058 203.591 782.309 195.522 782.309 185.317V184.546ZM799.455 185.792C799.455 191.883 800.603 196.55 802.897 199.794C805.191 202.998 808.474 204.6 812.746 204.6C816.899 204.6 820.142 203.018 822.476 199.853C824.81 196.649 825.977 191.547 825.977 184.546C825.977 178.573 824.81 173.945 822.476 170.662C820.142 167.379 816.859 165.738 812.627 165.738C808.434 165.738 805.191 167.379 802.897 170.662C800.603 173.906 799.455 178.949 799.455 185.792ZM889.758 169.119C887.424 168.803 885.367 168.645 883.588 168.645C877.101 168.645 872.849 170.84 870.831 175.231V217.237H853.684V153.041H869.882L870.357 160.694C873.798 154.801 878.564 151.854 884.655 151.854C886.554 151.854 888.334 152.111 889.995 152.625L889.758 169.119ZM916.16 217.237H898.954V153.041H916.16V217.237ZM897.946 136.428C897.946 133.857 898.796 131.741 900.497 130.079C902.237 128.418 904.591 127.587 907.557 127.587C910.484 127.587 912.818 128.418 914.559 130.079C916.299 131.741 917.169 133.857 917.169 136.428C917.169 139.038 916.279 141.174 914.499 142.836C912.759 144.497 910.445 145.328 907.557 145.328C904.67 145.328 902.336 144.497 900.556 142.836C898.816 141.174 897.946 139.038 897.946 136.428ZM946.123 153.041L946.657 160.457C951.245 154.722 957.396 151.854 965.109 151.854C971.912 151.854 976.975 153.851 980.298 157.846C983.62 161.841 985.321 167.814 985.4 175.765V217.237H968.254V176.18C968.254 172.541 967.462 169.911 965.88 168.289C964.298 166.628 961.668 165.797 957.989 165.797C953.164 165.797 949.544 167.854 947.132 171.967V217.237H929.985V153.041H946.123ZM995.783 184.546C995.783 178.177 997.01 172.501 999.462 167.518C1001.91 162.534 1005.43 158.677 1010.02 155.948C1014.65 153.219 1020.01 151.854 1026.1 151.854C1034.76 151.854 1041.82 154.504 1047.28 159.804C1052.78 165.105 1055.85 172.304 1056.48 181.401L1056.6 185.792C1056.6 195.641 1053.85 203.552 1048.35 209.524C1042.85 215.457 1035.48 218.424 1026.22 218.424C1016.96 218.424 1009.57 215.457 1004.03 209.524C998.532 203.591 995.783 195.522 995.783 185.317V184.546ZM1012.93 185.792C1012.93 191.883 1014.08 196.55 1016.37 199.794C1018.67 202.998 1021.95 204.6 1026.22 204.6C1030.37 204.6 1033.62 203.018 1035.95 199.853C1038.28 196.649 1039.45 191.547 1039.45 184.546C1039.45 178.573 1038.28 173.945 1035.95 170.662C1033.62 167.379 1030.33 165.738 1026.1 165.738C1021.91 165.738 1018.67 167.379 1016.37 170.662C1014.08 173.906 1012.93 178.949 1012.93 185.792Z" fill="#BEBEBE"/>
<path d="M25.5125 202.701H63.3067V217H7.71309V130.613H25.5125V202.701ZM101.991 218.187C92.5769 218.187 84.9034 215.299 78.9702 209.524C73.0766 203.749 70.1298 196.056 70.1298 186.444V184.783C70.1298 178.336 71.3758 172.58 73.8677 167.518C76.3596 162.415 79.88 158.499 84.4287 155.77C89.017 153.001 94.2382 151.617 100.092 151.617C108.873 151.617 115.776 154.385 120.799 159.923C125.862 165.461 128.393 173.312 128.393 183.478V190.479H87.514C88.0677 194.672 89.729 198.034 92.4978 200.565C95.3062 203.097 98.8463 204.362 103.118 204.362C109.724 204.362 114.886 201.969 118.604 197.183L127.029 206.617C124.458 210.256 120.977 213.104 116.586 215.161C112.196 217.178 107.331 218.187 101.991 218.187ZM100.033 165.5C96.6312 165.5 93.8624 166.647 91.7265 168.941C89.6301 171.236 88.2853 174.519 87.6919 178.791H111.543V177.426C111.464 173.629 110.436 170.702 108.458 168.645C106.48 166.548 103.672 165.5 100.033 165.5ZM135.513 184.308C135.513 177.94 136.739 172.264 139.192 167.28C141.644 162.296 145.164 158.44 149.753 155.711C154.381 152.981 159.74 151.617 165.832 151.617C174.494 151.617 181.554 154.267 187.013 159.567C192.511 164.867 195.576 172.066 196.209 181.164L196.328 185.554C196.328 195.403 193.579 203.314 188.081 209.287C182.583 215.22 175.206 218.187 165.95 218.187C156.694 218.187 149.298 215.22 143.76 209.287C138.262 203.354 135.513 195.285 135.513 185.08V184.308ZM152.66 185.554C152.66 191.646 153.807 196.313 156.101 199.557C158.395 202.76 161.678 204.362 165.95 204.362C170.103 204.362 173.347 202.78 175.681 199.616C178.014 196.412 179.181 191.309 179.181 184.308C179.181 178.336 178.014 173.708 175.681 170.425C173.347 167.142 170.064 165.5 165.832 165.5C161.639 165.5 158.395 167.142 156.101 170.425C153.807 173.668 152.66 178.711 152.66 185.554ZM222.671 152.803L223.205 160.22C227.793 154.484 233.944 151.617 241.657 151.617C248.461 151.617 253.523 153.614 256.846 157.609C260.169 161.604 261.869 167.577 261.949 175.527V217H244.802V175.943C244.802 172.304 244.011 169.673 242.428 168.052C240.846 166.39 238.216 165.56 234.537 165.56C229.712 165.56 226.093 167.616 223.68 171.73V217H206.533V152.803H222.671ZM312.202 217C311.411 215.457 310.838 213.539 310.482 211.245C306.328 215.873 300.929 218.187 294.284 218.187C287.995 218.187 282.774 216.367 278.621 212.728C274.507 209.089 272.45 204.501 272.45 198.963C272.45 192.16 274.962 186.939 279.985 183.3C285.048 179.661 292.346 177.821 301.879 177.782H309.77V174.103C309.77 171.137 308.998 168.763 307.456 166.984C305.953 165.204 303.56 164.314 300.277 164.314C297.389 164.314 295.115 165.006 293.454 166.39C291.832 167.775 291.021 169.673 291.021 172.086H273.874C273.874 168.368 275.021 164.927 277.315 161.762C279.61 158.598 282.853 156.126 287.046 154.346C291.238 152.526 295.945 151.617 301.167 151.617C309.077 151.617 315.347 153.614 319.975 157.609C324.642 161.565 326.976 167.142 326.976 174.341V202.167C327.015 208.258 327.866 212.867 329.527 215.991V217H312.202ZM298.022 205.074C300.554 205.074 302.887 204.521 305.023 203.413C307.159 202.266 308.741 200.743 309.77 198.845V187.809H303.362C294.779 187.809 290.21 190.775 289.656 196.709L289.597 197.717C289.597 199.853 290.349 201.613 291.852 202.998C293.355 204.382 295.411 205.074 298.022 205.074ZM376.221 168.882C373.887 168.566 371.83 168.408 370.051 168.408C363.564 168.408 359.312 170.603 357.294 174.993V217H340.147V152.803H356.345L356.82 160.457C360.261 154.563 365.027 151.617 371.118 151.617C373.017 151.617 374.797 151.874 376.458 152.388L376.221 168.882ZM380.671 184.427C380.671 174.42 382.906 166.45 387.375 160.516C391.885 154.583 398.035 151.617 405.827 151.617C412.077 151.617 417.239 153.95 421.313 158.618V125.867H438.519V217H423.034L422.203 210.177C417.931 215.517 412.433 218.187 405.709 218.187C398.154 218.187 392.082 215.22 387.494 209.287C382.945 203.314 380.671 195.028 380.671 184.427ZM397.818 185.673C397.818 191.685 398.866 196.293 400.962 199.497C403.059 202.701 406.104 204.303 410.099 204.303C415.4 204.303 419.137 202.068 421.313 197.599V172.264C419.177 167.794 415.479 165.56 410.218 165.56C401.951 165.56 397.818 172.264 397.818 185.673ZM449.139 184.308C449.139 177.94 450.366 172.264 452.818 167.28C455.27 162.296 458.791 158.44 463.379 155.711C468.007 152.981 473.366 151.617 479.458 151.617C488.12 151.617 495.181 154.267 500.639 159.567C506.137 164.867 509.203 172.066 509.836 181.164L509.954 185.554C509.954 195.403 507.205 203.314 501.707 209.287C496.209 215.22 488.832 218.187 479.576 218.187C470.321 218.187 462.924 215.22 457.386 209.287C451.888 203.354 449.139 195.285 449.139 185.08V184.308ZM466.286 185.554C466.286 191.646 467.433 196.313 469.727 199.557C472.022 202.76 475.305 204.362 479.576 204.362C483.73 204.362 486.973 202.78 489.307 199.616C491.641 196.412 492.807 191.309 492.807 184.308C492.807 178.336 491.641 173.708 489.307 170.425C486.973 167.142 483.69 165.5 479.458 165.5C475.265 165.5 472.022 167.142 469.727 170.425C467.433 173.668 466.286 178.711 466.286 185.554Z" fill="#BEBEBE"/>
<path d="M619.279 162.121C614.187 162.121 609.209 163.631 604.975 166.46C600.741 169.289 597.441 173.31 595.492 178.014C593.544 182.719 593.033 187.896 594.027 192.891C595.021 197.885 597.473 202.472 601.073 206.073C604.674 209.674 609.262 212.126 614.256 213.119C619.251 214.113 624.427 213.603 629.132 211.654C633.837 209.706 637.857 206.406 640.686 202.171C643.515 197.937 645.025 192.959 645.025 187.867C645.025 181.039 642.313 174.49 637.484 169.662C632.656 164.834 626.107 162.121 619.279 162.121Z" fill="#BEBEBE"/>
<path d="M698.291 55.9035C693.199 55.9035 688.221 57.4133 683.987 60.2429C679.753 63.0719 676.453 67.0928 674.504 71.7976C672.555 76.5018 672.046 81.6788 673.039 86.6733C674.032 91.6673 676.485 96.2553 680.085 99.8556C683.686 103.457 688.274 105.909 693.268 106.902C698.262 107.895 703.439 107.386 708.144 105.437C712.848 103.488 716.869 100.188 719.698 95.9541C722.527 91.7205 724.038 86.7426 724.038 81.6501C724.038 74.822 721.325 68.2728 716.497 63.4445C711.668 58.6162 705.119 55.9035 698.291 55.9035Z" fill="#BEBEBE"/>
<path d="M565.493 78.6794C565.493 73.5869 563.983 68.609 561.154 64.3749C558.325 60.1413 554.304 56.8412 549.599 54.8925C544.894 52.9437 539.718 52.434 534.724 53.4274C529.729 54.4208 525.142 56.873 521.541 60.4738C517.94 64.0742 515.488 68.6617 514.495 73.6562C513.501 78.6507 514.011 83.8277 515.96 88.5319C517.908 93.2367 521.209 97.2576 525.442 100.087C529.676 102.916 534.654 104.426 539.746 104.426C546.575 104.426 553.123 101.713 557.952 96.885C562.781 92.0562 565.493 85.5074 565.493 78.6794Z" fill="#BEBEBE"/>
<path d="M677.861 116.726C668.65 107.459 663.48 94.9242 663.48 81.8585C663.48 68.7929 668.65 56.2579 677.861 46.9912C681.452 43.3861 683.893 38.7987 684.879 33.8073C685.864 28.8153 685.348 23.6441 683.396 18.9451C681.445 14.2466 678.145 10.2314 673.913 7.40708C669.681 4.58225 664.707 3.07498 659.619 3.07498C654.531 3.07498 649.558 4.58225 645.326 7.40708C641.094 10.2314 637.794 14.2466 635.842 18.9451C633.891 23.6441 633.375 28.8153 634.36 33.8073C635.345 38.7987 637.787 43.3861 641.378 46.9912C646.004 51.575 649.677 57.0308 652.183 63.0422C654.689 69.0535 655.98 75.5022 655.98 82.0149C655.98 88.5277 654.689 94.9763 652.183 100.988C649.677 106.999 646.004 112.454 641.378 117.039C637.787 120.643 635.345 125.231 634.36 130.223C633.375 135.214 633.891 140.386 635.842 145.085C637.794 149.783 641.094 153.798 645.326 156.623C649.558 159.448 654.531 160.955 659.619 160.955C664.707 160.955 669.681 159.448 673.913 156.623C678.145 153.798 681.445 149.783 683.396 145.085C685.348 140.386 685.864 135.214 684.879 130.223C683.893 125.231 681.452 120.643 677.861 117.039V116.726Z" fill="#BEBEBE"/>
<path d="M603.748 131.736C603.72 124.976 601.066 118.491 596.347 113.651C587.137 104.384 581.967 91.8492 581.967 78.7836C581.967 65.718 587.137 53.1834 596.347 43.9162C599.938 40.3117 602.38 35.7237 603.365 30.7323C604.35 25.7409 603.834 20.5691 601.883 15.8706C599.931 11.1716 596.631 7.15693 592.399 4.3321C588.168 1.50779 583.193 0 578.106 0C573.018 0 568.044 1.50779 563.812 4.3321C559.58 7.15693 556.28 11.1716 554.328 15.8706C552.377 20.5691 551.861 25.7409 552.846 30.7323C553.832 35.7237 556.274 40.3117 559.864 43.9162C564.483 48.4995 568.149 53.9517 570.65 59.9583C573.152 65.965 574.44 72.4074 574.44 78.9139C574.44 85.4209 573.152 91.8633 570.65 97.87C568.149 103.877 564.483 109.329 559.864 113.912C556.9 116.922 554.722 120.616 553.523 124.667C552.323 128.717 552.139 133.001 552.986 137.14C553.834 141.279 555.687 145.146 558.382 148.4C561.077 151.653 564.531 154.194 568.44 155.797C572.349 157.4 576.591 158.017 580.795 157.593C584.998 157.168 589.033 155.716 592.542 153.364C596.052 151.013 598.929 147.833 600.919 144.107C602.91 140.381 603.953 136.221 603.956 131.997L603.748 131.736Z" fill="#BEBEBE"/>
</svg>
