<svg width="748" height="246" viewBox="0 0 748 246" fill="none" xmlns="http://www.w3.org/2000/svg">
<path d="M417.521 217.237H400.315V153.041H417.521V217.237ZM399.306 136.428C399.306 133.857 400.156 131.741 401.857 130.079C403.598 128.418 405.951 127.587 408.918 127.587C411.845 127.587 414.178 128.418 415.919 130.079C417.659 131.741 418.529 133.857 418.529 136.428C418.529 139.038 417.639 141.174 415.859 142.836C414.119 144.497 411.805 145.328 408.918 145.328C406.03 145.328 403.697 144.497 401.917 142.836C400.176 141.174 399.306 139.038 399.306 136.428ZM452.23 137.258V153.041H463.206V165.619H452.23V197.658C452.23 200.031 452.685 201.732 453.594 202.76C454.504 203.789 456.244 204.303 458.815 204.303C460.714 204.303 462.395 204.165 463.859 203.888V216.881C460.497 217.91 457.036 218.424 453.476 218.424C441.451 218.424 435.32 212.352 435.083 200.209V165.619H425.709V153.041H435.083V137.258H452.23ZM468.309 184.546C468.309 178.177 469.535 172.501 471.987 167.518C474.439 162.534 477.96 158.677 482.548 155.948C487.176 153.219 492.536 151.854 498.627 151.854C507.289 151.854 514.35 154.504 519.808 159.804C525.306 165.105 528.372 172.304 529.005 181.401L529.123 185.792C529.123 195.641 526.374 203.552 520.876 209.524C515.378 215.457 508.001 218.424 498.746 218.424C489.49 218.424 482.093 215.457 476.556 209.524C471.058 203.591 468.309 195.522 468.309 185.317V184.546ZM485.455 185.792C485.455 191.883 486.602 196.55 488.897 199.794C491.191 202.998 494.474 204.6 498.746 204.6C502.899 204.6 506.142 203.018 508.476 199.853C510.81 196.649 511.977 191.547 511.977 184.546C511.977 178.573 510.81 173.945 508.476 170.662C506.142 167.379 502.859 165.738 498.627 165.738C494.434 165.738 491.191 167.379 488.897 170.662C486.602 173.906 485.455 178.949 485.455 185.792ZM575.758 169.119C573.424 168.803 571.367 168.645 569.587 168.645C563.1 168.645 558.848 170.84 556.831 175.231V217.237H539.684V153.041H555.882L556.356 160.694C559.798 154.801 564.564 151.854 570.655 151.854C572.554 151.854 574.334 152.111 575.995 152.625L575.758 169.119ZM602.16 217.237H584.954V153.041H602.16V217.237ZM583.946 136.428C583.946 133.857 584.796 131.741 586.497 130.079C588.237 128.418 590.591 127.587 593.557 127.587C596.484 127.587 598.818 128.418 600.558 130.079C602.299 131.741 603.169 133.857 603.169 136.428C603.169 139.038 602.279 141.174 600.499 142.836C598.759 144.497 596.445 145.328 593.557 145.328C590.67 145.328 588.336 144.497 586.556 142.836C584.816 141.174 583.946 139.038 583.946 136.428ZM632.123 153.041L632.657 160.457C637.245 154.722 643.396 151.854 651.109 151.854C657.912 151.854 662.975 153.851 666.298 157.846C669.62 161.841 671.321 167.814 671.4 175.765V217.237H654.253V176.18C654.253 172.541 653.462 169.911 651.88 168.289C650.298 166.628 647.668 165.797 643.989 165.797C639.163 165.797 635.544 167.854 633.131 171.967V217.237H615.985V153.041H632.123ZM681.783 184.546C681.783 178.177 683.009 172.501 685.462 167.518C687.914 162.534 691.434 158.677 696.023 155.948C700.651 153.219 706.01 151.854 712.102 151.854C720.764 151.854 727.824 154.504 733.283 159.804C738.781 165.105 741.846 172.304 742.479 181.401L742.598 185.792C742.598 195.641 739.849 203.552 734.351 209.524C728.853 215.457 721.476 218.424 712.22 218.424C702.965 218.424 695.568 215.457 690.03 209.524C684.532 203.591 681.783 195.522 681.783 185.317V184.546ZM698.93 185.792C698.93 191.883 700.077 196.55 702.371 199.794C704.665 202.998 707.948 204.6 712.22 204.6C716.373 204.6 719.617 203.018 721.951 199.853C724.284 196.649 725.451 191.547 725.451 184.546C725.451 178.573 724.284 173.945 721.951 170.662C719.617 167.379 716.334 165.738 712.102 165.738C707.909 165.738 704.665 167.379 702.371 170.662C700.077 173.906 698.93 178.949 698.93 185.792Z" fill="#BEBEBE"/>
<path d="M63.2474 203.116V217H19.7574V203.116H63.2474ZM25.5125 130.613V217H7.71309V130.613H25.5125ZM101.932 218.187C96.9477 218.187 92.478 217.396 88.5226 215.813C84.5672 214.192 81.205 211.957 78.4362 209.109C75.707 206.261 73.6106 202.958 72.1471 199.201C70.6836 195.403 69.9518 191.369 69.9518 187.097V184.724C69.9518 179.858 70.644 175.409 72.0284 171.374C73.4128 167.34 75.3906 163.839 77.9616 160.872C80.5722 157.906 83.7365 155.631 87.4546 154.049C91.1727 152.428 95.3655 151.617 100.033 151.617C104.582 151.617 108.616 152.368 112.137 153.871C115.657 155.374 118.604 157.51 120.977 160.279C123.39 163.048 125.209 166.37 126.435 170.247C127.662 174.084 128.275 178.355 128.275 183.062V190.182H77.2496V178.791H111.484V177.485C111.484 175.112 111.049 172.996 110.179 171.137C109.348 169.238 108.082 167.735 106.381 166.628C104.681 165.52 102.505 164.966 99.8549 164.966C97.6003 164.966 95.6621 165.461 94.0404 166.45C92.4187 167.438 91.0936 168.823 90.0652 170.603C89.0763 172.383 88.3248 174.479 87.8106 176.892C87.336 179.265 87.0986 181.876 87.0986 184.724V187.097C87.0986 189.668 87.4546 192.041 88.1666 194.217C88.9181 196.392 89.9663 198.271 91.3112 199.853C92.6956 201.435 94.3569 202.662 96.295 203.532C98.2727 204.402 100.508 204.837 102.999 204.837C106.085 204.837 108.952 204.244 111.603 203.057C114.292 201.831 116.606 199.992 118.544 197.539L126.851 206.558C125.506 208.496 123.667 210.355 121.333 212.135C119.039 213.915 116.27 215.378 113.026 216.525C109.783 217.633 106.085 218.187 101.932 218.187ZM89.8872 144.082L101.516 125.807H120.087L103.771 144.082H89.8872ZM135.276 185.554V184.308C135.276 179.601 135.948 175.27 137.293 171.315C138.638 167.32 140.596 163.859 143.167 160.932C145.738 158.005 148.902 155.73 152.66 154.109C156.418 152.447 160.729 151.617 165.594 151.617C170.459 151.617 174.791 152.447 178.588 154.109C182.385 155.73 185.569 158.005 188.14 160.932C190.751 163.859 192.728 167.32 194.073 171.315C195.418 175.27 196.091 179.601 196.091 184.308V185.554C196.091 190.222 195.418 194.553 194.073 198.548C192.728 202.503 190.751 205.964 188.14 208.931C185.569 211.858 182.405 214.132 178.647 215.754C174.889 217.376 170.578 218.187 165.713 218.187C160.848 218.187 156.516 217.376 152.719 215.754C148.962 214.132 145.777 211.858 143.167 208.931C140.596 205.964 138.638 202.503 137.293 198.548C135.948 194.553 135.276 190.222 135.276 185.554ZM152.363 184.308V185.554C152.363 188.244 152.601 190.756 153.075 193.089C153.55 195.423 154.301 197.48 155.33 199.26C156.398 201 157.782 202.365 159.483 203.354C161.184 204.343 163.26 204.837 165.713 204.837C168.086 204.837 170.123 204.343 171.824 203.354C173.525 202.365 174.889 201 175.918 199.26C176.946 197.48 177.698 195.423 178.172 193.089C178.687 190.756 178.944 188.244 178.944 185.554V184.308C178.944 181.698 178.687 179.245 178.172 176.951C177.698 174.618 176.927 172.561 175.859 170.781C174.83 168.961 173.466 167.537 171.765 166.509C170.064 165.48 168.007 164.966 165.594 164.966C163.181 164.966 161.125 165.48 159.424 166.509C157.762 167.537 156.398 168.961 155.33 170.781C154.301 172.561 153.55 174.618 153.075 176.951C152.601 179.245 152.363 181.698 152.363 184.308Z" fill="#BEBEBE"/>
<path d="M305.279 162.121C300.187 162.121 295.209 163.63 290.975 166.459C286.741 169.289 283.441 173.31 281.492 178.014C279.544 182.719 279.033 187.896 280.027 192.89C281.021 197.884 283.473 202.472 287.073 206.073C290.674 209.674 295.261 212.126 300.256 213.119C305.251 214.113 310.427 213.603 315.132 211.654C319.836 209.705 323.857 206.405 326.686 202.171C329.515 197.937 331.025 192.959 331.025 187.867C331.025 181.039 328.313 174.49 323.484 169.662C318.656 164.833 312.107 162.121 305.279 162.121Z" fill="#BEBEBE"/>
<path d="M384.291 55.9033C379.199 55.9033 374.221 57.4132 369.987 60.2427C365.753 63.0717 362.453 67.0927 360.504 71.7974C358.556 76.5016 358.046 81.6786 359.039 86.6731C360.033 91.6671 362.485 96.2551 366.086 99.8555C369.686 103.456 374.274 105.909 379.268 106.902C384.262 107.895 389.439 107.386 394.144 105.437C398.848 103.488 402.869 100.188 405.698 95.9539C408.527 91.7203 410.038 86.7424 410.038 81.6499C410.038 74.8218 407.325 68.2726 402.497 63.4444C397.668 58.6161 391.119 55.9033 384.291 55.9033Z" fill="#BEBEBE"/>
<path d="M251.493 78.6793C251.493 73.5868 249.983 68.609 247.154 64.3748C244.325 60.1413 240.304 56.8411 235.599 54.8924C230.894 52.9437 225.718 52.434 220.724 53.4273C215.729 54.4207 211.142 56.8729 207.541 60.4738C203.94 64.0741 201.488 68.6616 200.495 73.6561C199.501 78.6507 200.011 83.8276 201.96 88.5318C203.908 93.2366 207.209 97.2576 211.442 100.087C215.676 102.916 220.654 104.426 225.746 104.426C232.575 104.426 239.123 101.713 243.952 96.8849C248.781 92.0561 251.493 85.5074 251.493 78.6793Z" fill="#BEBEBE"/>
<path d="M363.861 116.726C354.65 107.459 349.48 94.9244 349.48 81.8588C349.48 68.7931 354.65 56.2581 363.861 46.9914C367.452 43.3863 369.893 38.7989 370.879 33.8075C371.864 28.8155 371.348 23.6443 369.396 18.9453C367.445 14.2468 364.145 10.2316 359.913 7.4073C355.681 4.58246 350.707 3.0752 345.619 3.0752C340.531 3.0752 335.558 4.58246 331.326 7.4073C327.094 10.2316 323.794 14.2468 321.842 18.9453C319.891 23.6443 319.375 28.8155 320.36 33.8075C321.345 38.7989 323.787 43.3863 327.378 46.9914C332.004 51.5752 335.677 57.031 338.183 63.0424C340.689 69.0537 341.98 75.5024 341.98 82.0151C341.98 88.5279 340.689 94.9765 338.183 100.988C335.677 106.999 332.004 112.454 327.378 117.039C323.787 120.643 321.345 125.231 320.36 130.223C319.375 135.215 319.891 140.386 321.842 145.085C323.794 149.783 327.094 153.799 331.326 156.623C335.558 159.448 340.531 160.955 345.619 160.955C350.707 160.955 355.681 159.448 359.913 156.623C364.145 153.799 367.445 149.783 369.396 145.085C371.348 140.386 371.864 135.215 370.879 130.223C369.893 125.231 367.452 120.643 363.861 117.039V116.726Z" fill="#BEBEBE"/>
<path d="M289.748 131.736C289.72 124.976 287.066 118.491 282.347 113.651C273.136 104.384 267.967 91.8492 267.967 78.7836C267.967 65.718 273.136 53.1834 282.347 43.9162C285.938 40.3117 288.38 35.7237 289.365 30.7323C290.35 25.7409 289.834 20.5691 287.882 15.8706C285.931 11.1716 282.631 7.15693 278.399 4.3321C274.167 1.50779 269.193 0 264.105 0C259.018 0 254.044 1.50779 249.812 4.3321C245.58 7.15693 242.28 11.1716 240.328 15.8706C238.377 20.5691 237.861 25.7409 238.846 30.7323C239.832 35.7237 242.273 40.3117 245.864 43.9162C250.483 48.4995 254.149 53.9517 256.65 59.9583C259.152 65.965 260.44 72.4074 260.44 78.9139C260.44 85.4209 259.152 91.8633 256.65 97.87C254.149 103.877 250.483 109.329 245.864 113.912C242.9 116.922 240.722 120.616 239.523 124.667C238.323 128.717 238.139 133.001 238.986 137.14C239.834 141.279 241.687 145.146 244.382 148.4C247.077 151.653 250.531 154.194 254.439 155.797C258.348 157.4 262.591 158.017 266.795 157.593C270.998 157.168 275.033 155.716 278.542 153.364C282.052 151.013 284.929 147.833 286.919 144.107C288.91 140.381 289.953 136.221 289.956 131.997L289.748 131.736Z" fill="#BEBEBE"/>
</svg>
